<svg xmlns="http://www.w3.org/2000/svg" viewBox="0 0 100 100" width="100" height="100">
  <!-- 4. Fågelorakel: Vuxen fågel som matar sina ungar i boet -->
  <g fill="#2E5D4B">
    <path d="M 18 68 Q 50 92 82 68 C 84 76 74 88 50 88 C 26 88 16 76 18 68 Z" />
    <path d="M 22 66 C 35 72 65 72 78 66 C 72 74 58 78 50 78 C 42 78 28 74 22 66 Z" />
    <circle cx="34" cy="58" r="6" />
    <polygon points="32,54 28,45 36,52" />
    <polygon points="34,55 38,47 36,56" />
    <circle cx="48" cy="56" r="6.5" />
    <polygon points="46,52 42,43 50,50" />
    <polygon points="48,53 52,45 50,54" />
    <ellipse cx="68" cy="46" rx="11" ry="8" transform="rotate(-40 68 46)" />
    <circle cx="58" cy="38" r="8" />
    <polygon points="54,39 44,46 54,42" />
    <circle cx="59" cy="36" r="1.6" fill="#ffffff" />
    <path d="M 68 40 C 76 30 84 28 88 32 C 82 40 76 46 68 48 Z" />
    <path d="M 76 50 L 88 56 L 82 62 Z" />
  </g>
</svg>
