<svg xmlns="http://www.w3.org/2000/svg" viewBox="0 0 100 100" width="100" height="100">
  <!-- 4. Fågelorakel: Föräldern matar sin ungunge i boet -->
  <g fill="#2E5D4B">
    <!-- Nest -->
    <path d="M 15,65 C 15,80 30,86 50,86 C 70,86 85,80 85,65 Z" />
    <path d="M 12,68 Q 50,75 88,68" fill="none" stroke="#ffffff" stroke-width="3" stroke-linecap="round" />
    <!-- Baby bird head -->
    <circle cx="35" cy="55" r="10" />
    <polygon points="32,46 25,38 35,43" />
    <polygon points="33,49 27,45 35,46" />
    <circle cx="31" cy="53" r="2" fill="#ffffff" />
    <!-- Parent bird -->
    <path d="M 72,25 C 65,25 58,30 58,42 C 58,52 64,66 76,66 C 84,66 88,58 88,46 C 88,32 82,25 72,25 Z" />
    <circle cx="68" cy="32" r="2" fill="#ffffff" />
    <polygon points="62,38 46,44 62,44" fill="#2E5D4B" />
    <!-- Worm -->
    <path d="M 51,44 Q 43,43 35,44" fill="none" stroke="#ffffff" stroke-width="2" stroke-linecap="round" />
  </g>
</svg>
